PathFileType	4	(X/Y/Z)	C:/Users/beibeiliu/ov580/test_trc\sequence.20_training_dense_left.trc
DataRate	CameraRate	NumFrames	NumMarkers	Units	OrigDataRate	OrigDataStartFrame	OrigNumFrames
120	120	20	19	mm	120	127	336
Frame#	Time	ThumbCMC			ThumbMCP			ThumbIP			ThumbTip			IndexMCP			IndexPIP			IndexTip			MiddleMCP			MiddlePIP			MiddleTip			RingMCP			RingPIP			RingTip			PinkyMCP			PinkyPIP			PinkyTip			BackHand1			BackHand2			BackHand3	
		X0	Y0	Z0	X1	Y1	Z1	X2	Y2	Z2	X3	Y3	Z3	X4	Y4	Z4	X5	Y5	Z5	X6	Y6	Z6	X7	Y7	Z7	X8	Y8	Z8	X9	Y9	Z9	X10	Y10	Z10	X11	Y11	Z11	X12	Y12	Z12	X13	Y13	Z13	X14	Y14	Z14	X15	Y15	Z15	X16	Y16	Z16	X17	Y17	Z17	X18	Y18	Z18	
126	1.05	-205.415	96.0702	50.5779	-197.055	108.282	27.3571	-197.577	124.388	4.36488	-196.287	129.014	-15.5766	-258.299	103.347	9.21711	-264.598	114.718	-11.7297	-252.478	125.07	-37.2844	-256.094	78.9753	-1.15356	-264.537	91.6564	-27.4195	-241.938	104.445	-46.2784	-250.778	62.3717	-8.83823	-252.624	74.5593	-30.5675	-237.677	88.2781	-45.0177	-232.216	44.36	-4.8497	-242.546	53.6027	-23.6087	-232.179	68.7057	-42.3918	-232.556	51.7143	29.7201	-216.26	43.5825	53.9073	-231.841	68.8643	50.6937	
127	1.05833	-204.435	96.7989	52.0601	-194.296	113.234	27.2192	-197.318	121.311	5.46176	-197.869	131.106	-19.3435	-258.08	104.313	12.5218	-265.581	117.757	-6.49223	-255.492	128.87	-32.8495	-262.385	86.9018	1.42712	-265.864	95.6346	-25.5116	-242.56	106.372	-44.3588	-253.803	67.0867	-2.93653	-257.483	76.0497	-26.2356	-240.35	94.7947	-41.6847	-237.207	46.6981	-2.23861	-246.405	52.6318	-23.6573	-237.958	72.0785	-39.2295	-230.488	53.8864	36.2295	-221.321	45.8916	53.6099	-231.508	70.614	52.3957	
128	1.06667	-202.633	96.819	52.6638	-194.188	112.455	26.4983	-197.19	122.539	4.23825	-196.247	129.427	-15.8387	-256.804	106.328	18.8172	-266.7	121.453	-3.8156	-258.582	134.409	-22.2345	-264.398	88.0823	4.57705	-270.818	100.298	-20.3522	-247.869	107.226	-40.3201	-258.539	69.6073	0.385591	-263.484	79.7749	-20.2434	-245.357	96.3271	-38.358	-240.563	51.844	3.24125	-252.457	56.577	-20.349	-243.007	77.1369	-35.4352	-233.064	55.9073	35.7977	-219.801	45.3402	57.014	-228.729	73.7799	59.2201	
129	1.075	-200.311	98.2471	52.303	-193.635	111.425	24.7101	-197.864	123.555	1.74733	-197.826	126.979	-14.8234	-254.931	113.541	25.8764	-266.564	129.129	1.07068	-259.673	139.12	-17.7816	-264.501	90.0611	11.1565	-272.987	105.418	-14.4647	-252.961	112.209	-36.2602	-261.164	73.4784	5.86833	-268.68	84.5687	-16.1946	-252.382	98.036	-33.8059	-246.777	52.6925	5.95824	-259.593	62.9234	-13.7864	-251.248	80.5398	-31.809	-234.767	58.2752	40.0226	-220.733	49.5442	59.3926	-227.949	78.6954	59.8786	
130	1.08333	-199.356	98.8336	51.2072	-193.494	114.686	23.4418	-195.603	123.898	2.18159	-197.6	130.169	-17.7183	-252.554	120.071	31.5033	-265.697	134.577	8.53443	-257.677	144.076	-16.1217	-266.263	101.377	19.5335	-276.522	113.426	-4.89155	-258.273	120.022	-28.311	-262.139	77.8545	14.9655	-272.74	97.3359	-8.09787	-257.076	106.599	-28.3311	-254.33	61.695	10.3777	-265.76	70.728	-6.3755	-257.507	84.6083	-25.9122	-240.528	62.0654	41.6989	-221.252	51.07	58.397	-224.757	79.1556	63.8677	
131	1.09167	-195.631	95.5189	51.3925	-190.975	111.287	23.6672	-191.973	122.85	4.6644	-197.275	127.911	-17.5113	-251.128	126.195	34.3261	-261.182	141.358	17.7231	-256.81	148.187	-8.3427	-267.373	108.816	25.9338	-276.282	123.38	2.34882	-258.295	125.967	-24.6352	-265.837	87.0688	19.863	-277.497	102.382	-1.42799	-264.978	110.499	-21.8661	-257.393	69.665	16.4402	-270.758	77.5051	-1.91882	-263.367	91.9425	-23.6346	-239.593	63.5489	44.8836	-223.549	54.2436	62.2844	-222.871	79.6573	64.8174	
132	1.1	-193.959	95.7288	50.7795	-186.57	112.355	22.5377	-191.185	123.79	3.59185	-194.491	128.713	-15.5914	-246.91	127.873	37.8362	-258.35	145.331	19.6591	-252.662	155.027	-3.26072	-265.389	115.166	30.7971	-275.213	128.857	7.5708	-258.092	132.117	-20.4506	-265.769	97.1688	26.931	-277.192	110.814	4.78121	-265.639	120.965	-14.3334	-260.007	75.3433	20.7083	-273.355	87.581	3.2655	-265.25	98.8261	-16.8887	-239.983	70.8203	46.4578	-221.43	53.3957	64.2403	-223.654	85.9519	65.667	
133	1.10833	-189.786	96.2254	50.0556	-183.23	108.318	24.4822	-189.003	119.723	4.11224	-194.79	129.951	-18.8092	-240.735	130.426	42.201	-252.807	147.973	23.8859	-248.138	158.781	-1.59995	-261.335	116.971	34.7071	-270.702	136.628	14.8357	-260.903	136.458	-14.7363	-264.617	94.2085	29.5696	-274.7	115.918	13.3414	-263.865	125.826	-11.3973	-262.25	75.6174	22.3746	-275.504	89.7069	7.79616	-267.401	104.175	-8.86212	-238.327	68.9904	51.7063	-223.615	53.4059	64.024	-220.624	81.7191	66.8997	
134	1.11667	-187.22	89.5078	49.8126	-185.98	105.759	21.1961	-188.772	117.795	2.80519	-192.663	125.667	-17.0106	-236.992	130.791	42.9329	-244.18	155.265	25.1213	-244.593	159.466	1.94137	-256.514	121.045	37.8497	-269.604	137.404	19.0568	-255.072	142.539	-11.674	-263.23	98.5294	31.8089	-272.614	120.789	15.367	-263.892	127.719	-11.0888	-265.087	80.7442	25.1271	-272.72	99.1206	11.2778	-264.822	110.936	-6.80574	-240.217	72.9059	48.1952	-226.271	57.8542	64.1902	-219.25	84.5767	67.3989	
135	1.125	-184.61	85.4217	50.4359	-180.145	101.252	22.6277	-185.691	115.751	1.55314	-187.607	125.648	-18.193	-234.34	134.614	41.4273	-242.849	153.294	23.9806	-240.446	160.832	-0.308427	-253.172	121.962	38.0726	-264.064	141.318	21.0816	-254.861	141.174	-14.0553	-259.356	106.529	33.0723	-271.582	123.98	13.7289	-260.665	132.467	-8.18732	-258.746	82.2704	25.9354	-272.256	101.832	11.884	-266.143	113.569	-6.50984	-237.974	73.5413	50.562	-229.553	54.6954	60.276	-216.832	82.8535	65.9491	
136	1.13333	-188.487	83.3784	46.2249	-180.557	99.473	19.7535	-179.973	110.848	2.97932	-185.649	123.287	-18.3866	-228.244	135.252	41.446	-237.088	153.937	25.8345	-235.071	161.644	1.90906	-249.357	124.856	38.7582	-259.195	145.512	19.742	-248.898	147.332	-11.0898	-257.365	105.851	32.5584	-266.434	125.795	18.8264	-259.04	134.412	-9.26118	-262.451	89.1476	27.0301	-271.781	103.975	13.3255	-261.917	118.539	-7.91708	-235.772	73.5836	50.9813	-230.172	54.6981	61.8764	-217.316	81.3818	64.4122	
137	1.14167	-187.56	78.9371	45.7227	-176.932	91.7979	20.1521	-181.333	106.967	0.358055	-185.444	117.627	-19.2405	-218.866	131.451	42.1581	-223.006	157.396	26.2976	-220.685	164.873	0.994559	-240.795	124.789	38.4564	-251.759	150.072	20.0666	-247.614	148.908	-11.0855	-254.737	108.081	33.4804	-263.567	129.994	18.1251	-252.657	139.396	-8.07659	-259.476	93.4513	28.0612	-267.467	111.2	13.7131	-260.823	122.157	-2.93347	-237.183	76.2663	51.9932	-229.874	55.3831	61.7341	-213.253	82.8308	65.0958	
138	1.15	-184.933	71.263	43.9787	-177.276	85.3141	17.9294	-176.485	104.377	-3.18933	-180.456	113.286	-21.0921	-211.317	132.812	40.3228	-216.522	156.821	24.1601	-211.728	164.787	-2.33227	-237.876	129.605	38.1975	-243.506	152.425	19.1461	-240.519	153.398	-10.2645	-247.93	112.422	34.7852	-253.961	136.369	19.4668	-251.807	141.334	-5.88106	-255.309	100.107	29.3918	-264.028	116.922	14.6497	-256.55	125.583	-2.34787	-239.366	81.7058	51.5992	-229.03	55.9766	63.4188	-210.017	83.4236	62.731	
139	1.15833	-181.952	70.4388	41.1362	-175.008	83.8635	14.9064	-177.374	99.021	-3.27814	-180.859	108.275	-18.8443	-202.081	132.257	38.5048	-204.54	156.486	22.5918	-206.186	163.186	0.222512	-233.09	132.203	37.2991	-236.136	152.997	22.436	-232.861	156.546	-8.82918	-244.419	117.932	33.987	-249.24	140.963	17.1876	-241.653	145.621	-6.93439	-253.48	98.1596	30.1301	-260.61	118.95	17.5901	-252.803	125.834	-6.42441	-233.901	79.4036	52.054	-231.709	62.4614	63.1396	-209.712	78.6028	61.7212	
140	1.16667	-183.518	67.7642	40.6986	-173.283	78.0581	14.7384	-173.5	94.3837	-4.33809	-177.478	107.566	-23.7978	-200.175	130.549	35.4323	-200.44	155.297	20.0756	-200.627	162.711	-2.87077	-223.056	130.09	35.6779	-230.074	154.456	19.8007	-226.146	156.138	-13.0537	-237.854	119.963	34.5428	-240.314	144.654	16.6409	-234.682	147.437	-7.26239	-251.519	104.092	29.5572	-255.601	123.175	16.6093	-246.322	129.53	-2.58913	-232.333	82.503	50.9838	-228.827	59.2478	63.9429	-204.497	82.3534	61.8761	
141	1.175	-181.378	64.212	39.5626	-175.131	75.6963	13.4322	-168.378	89.5453	-5.23337	-174.016	100.681	-21.7283	-191.543	126.981	32.9649	-191.657	150.395	19.9624	-188.978	160.844	-8.1723	-219.479	130.326	34.6964	-219.105	157.888	14.8518	-218.906	158.375	-13.3718	-236.917	124.036	32.8231	-237.379	144.166	16.7213	-233.585	148.658	-6.85575	-250.274	110.177	29.5185	-251.8	126.341	17.5813	-242.264	135.161	-7.88811	-230.911	88.3361	48.7442	-230.56	66.3517	63.1704	-205.776	79.8281	58.6686	
142	1.18333	-180.006	59.7296	38.0045	-173.757	72.286	11.0157	-169.214	86.0785	-8.58184	-173.715	98.181	-25.9474	-187.232	125.633	30.3415	-187.116	149.573	14.2604	-185.098	157.341	-9.38133	-211.495	133.538	31.0516	-216.37	156.625	14.4643	-217.024	156.177	-18.6787	-228.498	123.109	31.0817	-231.614	145.828	15.1291	-222.058	149.809	-12.4794	-247.458	112.702	28.1785	-244.532	129.962	16.0507	-242.268	138.459	-6.91503	-227.406	88.4148	48.7849	-231.101	68.845	62.5355	-204.729	79.394	58.2991	
143	1.19167	-180.942	60.2243	35.468	-175.57	70.0214	8.08648	-169.189	81.5219	-11.15	-172.947	94.2239	-29.7699	-182.366	124.113	24.3197	-179.241	146.241	9.45327	-177.158	153.366	-16.4641	-210.077	134.941	28.2008	-211.057	156.912	8.79051	-208.542	155.98	-22.108	-225.799	123.926	28.8296	-226.182	148.888	10.0419	-221.403	151.425	-11.2322	-243.875	110.584	26.7586	-241.187	132.316	14.2391	-238.128	139.465	-11.691	-223.33	92.331	47.8155	-229.861	69.9328	61.0199	-203.214	79.4726	54.2995	
144	1.2	-181.974	57.481	32.2265	-171.437	67.2542	3.97103	-167.922	78.828	-15.5976	-169.304	91.2622	-36.7418	-177.426	121.531	20.0631	-169.604	141.8	1.45582	-168.583	148.572	-26.0628	-203.587	132.36	25.1339	-203.41	155.516	7.95971	-201.967	153.807	-25.9411	-218.664	129.748	25.002	-218.543	147.398	10.7343	-217.099	150.846	-19.4104	-236.212	113.88	23.5635	-238.459	135.063	8.92916	-235.774	140.613	-10.3567	-220.116	92.7548	45.1453	-226.146	72.1525	60.4189	-197.501	81.7979	50.397	
145	1.20833	-178.574	58.3105	28.0904	-171.521	63.8563	1.59976	-166.981	76.0841	-19.8088	-169.346	86.4815	-39.0208	-171.578	121.974	13.1741	-165.406	138.413	-2.70264	-163.494	143.8	-27.6085	-198.877	131.026	20.2924	-198.106	154.217	2.91665	-197.079	152.148	-32.0421	-213.127	125.169	21.6639	-213.379	148.428	4.33206	-210.515	148.378	-23.4615	-235.615	121.079	22.2244	-236.269	136.247	6.75034	-233.102	140.13	-16.5857	-220.169	93.2218	41.7628	-224.956	74.8917	58.9296	-194.842	78.9761	48.6013	
